<svg width="27" height="39" viewBox="0 0 27 39" fill="none" xmlns="http://www.w3.org/2000/svg">
<path d="M3.25446 8.24883C4.33929 5.82271 5.86607 3.84137 7.83482 2.30482C9.84375 0.768274 12.0938 0 14.5848 0C17.0759 0 19.2857 1.09176 21.2143 3.27527C23.183 5.41835 24.6295 7.92535 25.5536 10.7963C26.5179 13.6267 27 16.154 27 18.3779C27 20.6019 26.5179 22.4012 25.5536 23.7761C24.6295 25.1509 23.1629 25.8383 21.154 25.8383C19.1451 25.8383 17.779 24.6454 17.0558 22.2597C15.5692 25.4946 13.4196 27.112 10.6071 27.112C8.39732 27.112 7.29241 25.6159 7.29241 22.6236C7.29241 19.591 8.11607 16.9627 9.76339 14.7387C11.4107 12.4743 13.3594 11.3421 15.6094 11.3421C16.4933 11.3421 17.3772 11.7263 18.2612 12.4946C19.1451 13.2224 19.5871 14.4355 19.5871 16.1337C19.5871 17.7916 19.8482 19.3686 20.3705 20.8647C20.8929 22.3204 21.4955 23.0482 22.1786 23.0482C22.6205 23.0482 22.9821 22.7652 23.2634 22.1991C23.5848 21.633 23.7455 20.8849 23.7455 19.9549C23.7455 16.1135 22.721 12.2115 20.6719 8.24883C18.6228 4.28616 16.433 2.30482 14.1027 2.30482C12.0938 2.30482 10.2656 3.31571 8.6183 5.33748C6.97098 7.35925 5.70536 9.86625 4.82143 12.8585C3.97768 15.8507 3.5558 18.8429 3.5558 21.8352C3.5558 24.7869 3.89732 27.3546 4.58036 29.5381C5.26339 31.7216 6.44866 33.5412 8.13616 34.9969C9.86384 36.4526 11.9933 37.1804 14.5246 37.1804C16.0915 37.1804 17.8594 36.8771 19.8281 36.2706C20.1897 36.1897 20.4911 36.1493 20.7321 36.1493C21.2545 36.1493 21.5156 36.3515 21.5156 36.7558C21.5156 37.4432 20.5714 37.9891 18.683 38.3935C16.7946 38.7978 15.1071 39 13.6205 39C9.44197 39 6.12723 37.6656 3.67634 34.9969C1.22545 32.3282 0 28.4261 0 23.2908C0 18.1151 1.08482 13.1011 3.25446 8.24883ZM11.3906 24.2006C12.1942 24.2006 12.9576 23.5132 13.6808 22.1384C14.404 20.7232 15.0469 19.1664 15.6094 17.4681C16.2121 15.7294 16.6138 14.7185 16.8147 14.4355C16.2924 14.0715 15.7299 13.8896 15.1272 13.8896C13.9219 13.8896 12.8772 14.7994 11.9933 16.619C11.1496 18.3981 10.7277 20.1166 10.7277 21.7745C10.7277 23.3919 10.9487 24.2006 11.3906 24.2006Z" fill="#222429"/>
</svg>
